<?xml version="1.0" encoding="UTF-8"?>
<svg width="506.14" height="439.8" version="1.1" viewBox="0 0 506.14 439.8" xmlns="http://www.w3.org/2000/svg" xmlns:cc="http://creativecommons.org/ns#" xmlns:dc="http://purl.org/dc/elements/1.1/" xmlns:rdf="http://www.w3.org/1999/02/22-rdf-syntax-ns#">
 <metadata>
  <rdf:RDF>
   <cc:Work rdf:about="">
    <dc:format>image/svg+xml</dc:format>
    <dc:type rdf:resource="http://purl.org/dc/dcmitype/StillImage"/>
    <dc:title/>
   </cc:Work>
  </rdf:RDF>
 </metadata>
 <g fill="none" stroke="#474747">
  <line x1="243.94" x2="249.79" y1="218.42" y2="218.41" stroke-width="1.0792"/>
  <line x1="222.86" x2="228.94" y1="218.47" y2="218.46" stroke-width="1.1032"/>
  <line x1="233.94" x2="238.94" y1="218.45" y2="218.44"/>
 </g>
 <text transform="rotate(-.12798)" x="227.21509" y="222.45822" fill="#474747" font-family="'Liberation Sans', Arial, Helvetica, sans-serif" font-size="12px">S</text>
 <text transform="rotate(-.12798)" x="237.11029" y="222.37595" fill="#474747" font-family="'Liberation Sans', Arial, Helvetica, sans-serif" font-size="12px">S</text>
 <g fill="none" stroke="#474747">
  <line x1="244.15" x2="250" y1="210.01" y2="210" stroke-width="1.0792"/>
  <line x1="223.07" x2="229.15" y1="210.05" y2="210.04" stroke-width="1.1032"/>
  <line x1="234.15" x2="239.15" y1="210.03" y2="210.02"/>
 </g>
 <text transform="rotate(-.12798)" x="237.15231" y="213.83308" fill="#474747" font-family="'Liberation Sans', Arial, Helvetica, sans-serif" font-size="12px">S</text>
 <text transform="rotate(-.12798)" x="227.25699" y="213.97784" fill="#474747" font-family="'Liberation Sans', Arial, Helvetica, sans-serif" font-size="12px">S</text>
 <g>
  <g fill="none" stroke="#474747">
   <line x1="165.44" x2="169.51" y1="188.34" y2="185.44"/>
   <line x1="149.15" x2="153.22" y1="199.95" y2="197.05"/>
   <line x1="157.3" x2="161.37" y1="194.15" y2="191.24"/>
  </g>
  <text transform="rotate(-35.5)" x="9.1004763" y="253.03046" fill="#474747" font-family="'Liberation Sans', Arial, Helvetica, sans-serif" font-size="12px">S</text>
  <text transform="rotate(-35.5)" x="19.14043" y="252.93216" fill="#474747" font-family="'Liberation Sans', Arial, Helvetica, sans-serif" font-size="12px">S</text>
 </g>
 <g>
  <g fill="none" stroke="#474747">
   <line x1="313.8" x2="317.64" y1="205.25" y2="208.45"/>
   <line x1="298.44" x2="302.28" y1="192.44" y2="195.64"/>
   <line x1="306.12" x2="309.96" y1="198.84" y2="202.05"/>
  </g>
  <text transform="rotate(39.822)" x="366.08533" y="-39.800961" fill="#474747" font-family="'Liberation Sans', Arial, Helvetica, sans-serif" font-size="12px">S</text>
  <text transform="rotate(39.822)" x="356.35062" y="-39.714176" fill="#474747" font-family="'Liberation Sans', Arial, Helvetica, sans-serif" font-size="12px">S</text>
 </g>
 <path d="m261.28 224.13v-4c-15 0-15-4 0-4 15 1 15-3 0-4-15 0-15-4 0-4 10 2 10-2 0-4.5-7.0711-7.0711-3.0711-11.071 4.2426-3.7426 7.0711 7.0711 11.071 3.0711 2.8284-2.8284-10.607-7.0711-3.0711-14.607 2.8284-2.8284l9.2076-11.291" fill="none" stroke="#00238b" stroke-width="2"/>
 <path d="m118.63 111.13 30-22c2.0028-3.0852 2.021-4.8271 0-8l-13.511-19.004c-3.1535-7.045-11.157-21.828-14.489-27.996-2.6526-5.0237-6.2742-5.4162-11-3l-28 20c-1.8208 2.1168-0.93553 3.9282 0.52136 5.7865 5.4269-3.8686 11.234 4.2725 5.8071 8.1411l2.9036 4.0706 6.9741 1.167-2.334 13.948 17.421 24.423c1.6507 2.3252 2.8151 2.9867 5.7066 2.4633z" fill="#e8abab" stroke="#000" stroke-width="1.3333"/>
 <path d="m211.28 224.13v-4c15 0 15-4 0-4-15 1-15-3 0-4 15 0 15-4 0-4-10 2-10-2 0-4.5 7.0711-7.0711 3.0711-11.071-4.2426-3.7426-7.0711 7.0711-11.071 3.0711-2.8284-2.8284 10.607-7.0711 3.0711-14.607-2.8284-2.8284l-8.4093-11.385" fill="none" stroke="#8b0000" stroke-width="2"/>
 <g fill="#d05252" stroke="#000" stroke-width="1.3333">
  <rect transform="rotate(-35.5)" x="28.824" y="159.05" width="45" height="108.89" ry="5"/>
  <rect x="181.28" y="224.13" width="47" height="100" ry="5"/>
  <rect x="181.28" y="324.13" width="47" height="100" ry="5"/>
 </g>
 <g stroke="#000">
  <rect x="244.28" y="224.13" width="47" height="100" ry="5" fill="#436bdf" stroke-width="1.3333"/>
  <rect x="244.28" y="324.13" width="47" height="100" ry="5" fill="#436bdf" stroke-width="1.3333"/>
  <polyline transform="translate(-48.724 -15.865)" points="500 50 510 50 510 235 500 235" fill="none"/>
  <polyline transform="translate(-48.724 -15.865)" points="500 240 510 240 510 440 500 440" fill="none"/>
 </g>
 <text x="464.85214" y="136.67244" font-family="sans-serif" font-size="18.667px" letter-spacing="0px" word-spacing="0px" style="line-height:1.25" xml:space="preserve"><tspan x="464.85214" y="136.67244" font-size="18.667px">Fab</tspan></text>
 <g stroke="#000" stroke-width="1.3333">
  <path d="m354.28 111.13-30-22c-2.0028-3.0852-2.021-4.8271 0-8l13.511-19.004c3.1535-7.045 11.157-21.828 14.489-27.996 2.6526-5.0237 6.2742-5.4162 11-3l28 20c1.8208 2.1168 0.93553 3.9282-0.52136 5.7865-5.4269-3.8686-11.234 4.2725-5.8071 8.1411l-2.9036 4.0706-6.9741 1.167 2.334 13.948-17.421 24.423c-1.6507 2.3252-2.8151 2.9867-5.7066 2.4633z" fill="#a4ddef"/>
  <rect transform="matrix(-.81411 -.58071 -.58071 .81411 0 0)" x="-356.17" y="-115.58" width="45" height="108.89" ry="5" fill="#436bdf"/>
  <path d="m378.74 128.51 24.397 17.222c2.133 1.241 3.1599 1.3596 4.9822-0.48943l15.586-21.962c5.6346-5.2752 20.005-20.713 24.494-26.097 1.9161-2.1626 1.9988-3.1459 0.38645-5.5081l-25.584-18.097c-2.7508-0.82703-3.8223-0.06787-5.2376 2.4733l4.0706 2.9036-2.9036 4.0706-4.0706-2.9036-5.8071 8.1411c1.4448 2.7274 0.40578 6.1097-2.3211 7.5556-2.7269 1.4459-6.1096 0.40821-7.5566-2.3181l-20.739 29.032c-1.5839 2.403-1.5532 3.6658 0.30384 5.9767z" fill="#e4e8aa"/>
  <rect transform="matrix(-.81411 -.58071 -.58071 .81411 0 0)" x="-416.53" y="-115.68" width="37.263" height="110" ry="5" fill="#c2cf00"/>
 </g>
 <text x="391.53732" y="125.47204" font-family="sans-serif" font-size="24px" letter-spacing="0px" word-spacing="0px" style="line-height:1.25" xml:space="preserve"><tspan x="391.53732" y="125.47204" font-family="'Liberation Sans', Arial, Helvetica, sans-serif" font-size="24px">V<tspan baseline-shift="sub" font-size="65%">L</tspan></tspan></text>
 <text x="336.60349" y="88.081276" font-family="sans-serif" font-size="24px" letter-spacing="0px" word-spacing="0px" style="line-height:1.25" xml:space="preserve"><tspan x="336.60349" y="88.081276" font-family="'Liberation Sans', Arial, Helvetica, sans-serif" font-size="24px">V<tspan baseline-shift="sub" font-size="65%">H</tspan></tspan></text>
 <path d="m94.167 128.51-24.397 17.222c-2.133 1.241-3.1599 1.3596-4.9822-0.48943l-15.586-21.962c-5.6346-5.2752-20.005-20.713-24.494-26.097-1.9161-2.1626-1.9988-3.1459-0.38645-5.5081l25.584-18.097c2.7508-0.82703 3.8223-0.06787 5.2376 2.4733l-4.0706 2.9036 2.9036 4.0706 4.0706-2.9036 5.8071 8.1411c-1.4448 2.7274-0.40578 6.1097 2.3211 7.5556 2.7269 1.4459 6.1096 0.40821 7.5566-2.3181l20.739 29.032c1.5839 2.403 1.5532 3.6658-0.30384 5.9767z" fill="#abe8ab" stroke="#000" stroke-width="1.3333"/>
 <text x="57.105011" y="124.785" font-family="sans-serif" font-size="24px" letter-spacing="0px" word-spacing="0px" style="line-height:1.25" xml:space="preserve"><tspan x="57.105011" y="124.785" font-family="'Liberation Sans', Arial, Helvetica, sans-serif" font-size="24px">V<tspan baseline-shift="sub" font-size="65%">L</tspan></tspan></text>
 <rect transform="rotate(-35.5)" x="-31.536" y="158.94" width="37.263" height="110" ry="5" fill="#53d053" stroke="#000" stroke-width="1.3333"/>
 <g font-family="sans-serif" font-size="24px" letter-spacing="0px" word-spacing="0px">
  <text x="106.16939" y="86.746048" style="line-height:1.25" xml:space="preserve"><tspan x="106.16939" y="86.746048" font-family="'Liberation Sans', Arial, Helvetica, sans-serif" font-size="24px">V<tspan baseline-shift="sub" font-size="65%">H</tspan></tspan></text>
  <text x="100.14097" y="186.55235" style="line-height:1.25" xml:space="preserve"><tspan x="100.14097" y="186.55235" font-family="'Liberation Sans', Arial, Helvetica, sans-serif" font-size="24px">C<tspan baseline-shift="sub" font-size="65%">L</tspan></tspan></text>
  <text x="345.21231" y="187.89867" style="line-height:1.25" xml:space="preserve"><tspan x="345.21231" y="187.89867" font-family="'Liberation Sans', Arial, Helvetica, sans-serif" font-size="24px">C<tspan baseline-shift="sub" font-size="65%">L</tspan></tspan></text>
  <text x="145.69159" y="152.66866" style="line-height:1.25" xml:space="preserve"><tspan x="145.69159" y="152.66866" font-family="'Liberation Sans', Arial, Helvetica, sans-serif" font-size="24px">C<tspan baseline-shift="sub" font-size="65%">H</tspan>1</tspan></text>
  <text x="281.76102" y="156.76561" style="line-height:1.25" xml:space="preserve"><tspan x="281.76102" y="156.76561" font-family="'Liberation Sans', Arial, Helvetica, sans-serif" font-size="24px">C<tspan baseline-shift="sub" font-size="65%">H</tspan>1</tspan></text>
  <text x="183.65" y="281.37424" style="line-height:1.25" xml:space="preserve"><tspan x="183.60786" y="281.37424" font-family="'Liberation Sans', Arial, Helvetica, sans-serif" font-size="24px">C<tspan baseline-shift="sub" font-size="65%">H</tspan>2</tspan></text>
  <text x="247" y="281.37424" style="line-height:1.25" xml:space="preserve"><tspan x="247.02213" y="281.37424" font-family="'Liberation Sans', Arial, Helvetica, sans-serif" font-size="24px">C<tspan baseline-shift="sub" font-size="65%">H</tspan>2</tspan></text>
 </g>
 <circle transform="rotate(9.4995)" cx="97.6" cy="65.275" r="70" fill="none" stroke="#3b0000" stroke-dasharray="5, 5"/>
 <g font-family="sans-serif" letter-spacing="0px" word-spacing="0px">
  <text x="464.85214" y="330.67245" font-size="18.667px" style="line-height:1.25" xml:space="preserve"><tspan x="464.85214" y="330.67245" font-size="18.667px">Fc</tspan></text>
  <text x="183.65" y="375.37424" font-size="24px" style="line-height:1.25" xml:space="preserve"><tspan x="183.78462" y="375.37424" font-family="'Liberation Sans', Arial, Helvetica, sans-serif" font-size="24px">C<tspan baseline-shift="sub" font-size="65%">H</tspan>3</tspan></text>
  <text x="247" y="375.37424" font-size="24px" style="line-height:1.25" xml:space="preserve"><tspan x="247.1989" y="375.37424" font-family="'Liberation Sans', Arial, Helvetica, sans-serif" font-size="24px">C<tspan baseline-shift="sub" font-size="65%">H</tspan>3</tspan></text>
 </g>
</svg>
